<mxfile host="app.diagrams.net" modified="2021-10-21T07:53:27.413Z" agent="5.0 (Windows NT 10.0; Win64; x64) AppleWebKit/537.36 (KHTML, like Gecko) Chrome/94.0.4606.81 Safari/537.36" etag="fqQlFuUodj1qjj6OxUxe" version="15.5.5" type="github" pages="2">
  <diagram id="NoRRGFk3xaIVJdIa8S_9" name="Page-1">
    <mxGraphModel dx="1955" dy="934" grid="1" gridSize="10" guides="1" tooltips="1" connect="1" arrows="1" fold="1" page="1" pageScale="1" pageWidth="1100" pageHeight="1700" math="0" shadow="0">
      <root>
        <mxCell id="KOQOTGZPTuCLEAgM73mw-0" />
        <mxCell id="KOQOTGZPTuCLEAgM73mw-1" parent="KOQOTGZPTuCLEAgM73mw-0" />
        <mxCell id="mtjGMdIXt-amCV8N5kMg-0" value="" style="swimlane;startSize=0;strokeWidth=3;opacity=50;" parent="KOQOTGZPTuCLEAgM73mw-1" vertex="1">
          <mxGeometry x="530" y="820" width="1300" height="660" as="geometry">
            <mxRectangle x="320" y="-30" width="50" height="40" as="alternateBounds" />
          </mxGeometry>
        </mxCell>
        <mxCell id="mtjGMdIXt-amCV8N5kMg-1" value="POD" style="text;html=1;strokeColor=none;fillColor=none;align=center;verticalAlign=middle;whiteSpace=wrap;rounded=0;opacity=50;" parent="mtjGMdIXt-amCV8N5kMg-0" vertex="1">
          <mxGeometry x="1060" y="380" width="40" height="20" as="geometry" />
        </mxCell>
        <mxCell id="mtjGMdIXt-amCV8N5kMg-2" value="" style="swimlane;startSize=0;strokeWidth=3;opacity=50;" parent="mtjGMdIXt-amCV8N5kMg-0" vertex="1">
          <mxGeometry x="90" y="50" width="1180" height="540" as="geometry" />
        </mxCell>
        <mxCell id="mtjGMdIXt-amCV8N5kMg-3" value="&lt;b style=&quot;font-size: 17px&quot;&gt;&lt;span&gt;Ingress&lt;/span&gt;&lt;/b&gt;" style="shape=trapezoid;perimeter=trapezoidPerimeter;whiteSpace=wrap;html=1;fixedSize=1;direction=north;" parent="mtjGMdIXt-amCV8N5kMg-2" vertex="1">
          <mxGeometry x="620" y="170" width="70" height="270" as="geometry" />
        </mxCell>
        <mxCell id="mtjGMdIXt-amCV8N5kMg-4" value="&lt;b&gt;&lt;font style=&quot;font-size: 12px&quot;&gt;ARTA-UI&lt;/font&gt;&lt;/b&gt;" style="whiteSpace=wrap;html=1;aspect=fixed;" parent="mtjGMdIXt-amCV8N5kMg-2" vertex="1">
          <mxGeometry x="970" y="210" width="80" height="80" as="geometry" />
        </mxCell>
        <mxCell id="mtjGMdIXt-amCV8N5kMg-5" value="&lt;span&gt;Service&lt;/span&gt;&lt;br&gt;&lt;span&gt;(ClusterIP)&lt;/span&gt;" style="rounded=0;whiteSpace=wrap;html=1;" parent="mtjGMdIXt-amCV8N5kMg-2" vertex="1">
          <mxGeometry x="900" y="210" width="70" height="80" as="geometry" />
        </mxCell>
        <mxCell id="mtjGMdIXt-amCV8N5kMg-6" value="Service&lt;br&gt;(ClusterIP)" style="rounded=0;whiteSpace=wrap;html=1;" parent="mtjGMdIXt-amCV8N5kMg-2" vertex="1">
          <mxGeometry x="900" y="310" width="70" height="80" as="geometry" />
        </mxCell>
        <mxCell id="mtjGMdIXt-amCV8N5kMg-8" value="" style="edgeStyle=elbowEdgeStyle;elbow=horizontal;endArrow=classic;html=1;strokeWidth=3;entryX=0;entryY=0.5;entryDx=0;entryDy=0;exitX=0.419;exitY=1.014;exitDx=0;exitDy=0;exitPerimeter=0;" parent="mtjGMdIXt-amCV8N5kMg-2" source="mtjGMdIXt-amCV8N5kMg-3" target="mtjGMdIXt-amCV8N5kMg-6" edge="1">
          <mxGeometry width="50" height="50" relative="1" as="geometry">
            <mxPoint x="190" y="310" as="sourcePoint" />
            <mxPoint x="190" y="270" as="targetPoint" />
            <Array as="points">
              <mxPoint x="820" y="340" />
            </Array>
          </mxGeometry>
        </mxCell>
        <mxCell id="mtjGMdIXt-amCV8N5kMg-9" value="" style="edgeStyle=elbowEdgeStyle;elbow=horizontal;endArrow=classic;html=1;strokeWidth=3;entryX=0;entryY=0.5;entryDx=0;entryDy=0;exitX=0.559;exitY=1.029;exitDx=0;exitDy=0;exitPerimeter=0;" parent="mtjGMdIXt-amCV8N5kMg-2" source="mtjGMdIXt-amCV8N5kMg-3" target="mtjGMdIXt-amCV8N5kMg-5" edge="1">
          <mxGeometry width="50" height="50" relative="1" as="geometry">
            <mxPoint x="-290" y="250" as="sourcePoint" />
            <mxPoint x="-240" y="200" as="targetPoint" />
            <Array as="points">
              <mxPoint x="820" y="210" />
            </Array>
          </mxGeometry>
        </mxCell>
        <mxCell id="mtjGMdIXt-amCV8N5kMg-15" value="&lt;font style=&quot;font-size: 14px&quot;&gt;&lt;b&gt;Namespace: arta-app-xsp&lt;/b&gt;&lt;/font&gt;" style="text;html=1;strokeColor=none;fillColor=none;align=center;verticalAlign=middle;whiteSpace=wrap;rounded=0;" parent="mtjGMdIXt-amCV8N5kMg-2" vertex="1">
          <mxGeometry x="-10" y="70" width="220" height="30" as="geometry" />
        </mxCell>
        <mxCell id="mtjGMdIXt-amCV8N5kMg-22" value="" style="html=1;dashed=0;whitespace=wrap;fillColor=#2875E2;strokeColor=#ffffff;points=[[0.005,0.63,0],[0.1,0.2,0],[0.9,0.2,0],[0.5,0,0],[0.995,0.63,0],[0.72,0.99,0],[0.5,1,0],[0.28,0.99,0]];shape=mxgraph.kubernetes.icon;prIcon=node" parent="mtjGMdIXt-amCV8N5kMg-2" vertex="1">
          <mxGeometry x="30" y="10" width="40" height="40" as="geometry" />
        </mxCell>
        <mxCell id="mtjGMdIXt-amCV8N5kMg-24" value="&lt;font style=&quot;font-size: 14px&quot;&gt;path: /arta&lt;/font&gt;" style="text;html=1;strokeColor=none;fillColor=none;align=center;verticalAlign=middle;whiteSpace=wrap;rounded=0;" parent="mtjGMdIXt-amCV8N5kMg-2" vertex="1">
          <mxGeometry x="720" y="330" width="70" height="20" as="geometry" />
        </mxCell>
        <mxCell id="mtjGMdIXt-amCV8N5kMg-26" value="&lt;font style=&quot;font-size: 14px&quot;&gt;path: /&lt;/font&gt;" style="text;html=1;strokeColor=none;fillColor=none;align=center;verticalAlign=middle;whiteSpace=wrap;rounded=0;" parent="mtjGMdIXt-amCV8N5kMg-2" vertex="1">
          <mxGeometry x="720" y="260" width="70" height="20" as="geometry" />
        </mxCell>
        <mxCell id="mtjGMdIXt-amCV8N5kMg-7" value="&lt;b&gt;&lt;font style=&quot;font-size: 12px&quot;&gt;ARTA-API&lt;/font&gt;&lt;/b&gt;" style="whiteSpace=wrap;html=1;aspect=fixed;" parent="mtjGMdIXt-amCV8N5kMg-2" vertex="1">
          <mxGeometry x="970" y="310" width="80" height="80" as="geometry" />
        </mxCell>
        <mxCell id="NjgUl1H5gCtT-oJemDtV-1" value="&lt;b&gt;&lt;font style=&quot;font-size: 12px&quot;&gt;ARTA-UI-BU&lt;/font&gt;&lt;/b&gt;" style="whiteSpace=wrap;html=1;aspect=fixed;" vertex="1" parent="mtjGMdIXt-amCV8N5kMg-2">
          <mxGeometry x="970" y="110" width="80" height="80" as="geometry" />
        </mxCell>
        <mxCell id="NjgUl1H5gCtT-oJemDtV-2" value="&lt;b style=&quot;color: rgb(0 , 0 , 0) ; font-family: &amp;#34;helvetica&amp;#34; ; font-size: 12px ; font-style: normal ; letter-spacing: normal ; text-align: center ; text-indent: 0px ; text-transform: none ; word-spacing: 0px ; background-color: rgb(248 , 249 , 250)&quot;&gt;&lt;font style=&quot;font-size: 12px&quot;&gt;ARTA-API-BU&lt;/font&gt;&lt;/b&gt;" style="whiteSpace=wrap;html=1;aspect=fixed;" vertex="1" parent="mtjGMdIXt-amCV8N5kMg-2">
          <mxGeometry x="970" y="410" width="80" height="80" as="geometry" />
        </mxCell>
        <mxCell id="NjgUl1H5gCtT-oJemDtV-3" value="&lt;span&gt;Service&lt;/span&gt;&lt;br&gt;&lt;span&gt;(ClusterIP)&lt;/span&gt;" style="rounded=0;whiteSpace=wrap;html=1;" vertex="1" parent="mtjGMdIXt-amCV8N5kMg-2">
          <mxGeometry x="900" y="110" width="70" height="80" as="geometry" />
        </mxCell>
        <mxCell id="NjgUl1H5gCtT-oJemDtV-4" value="&lt;span&gt;Service&lt;/span&gt;&lt;br&gt;&lt;span&gt;(ClusterIP)&lt;/span&gt;" style="rounded=0;whiteSpace=wrap;html=1;" vertex="1" parent="mtjGMdIXt-amCV8N5kMg-2">
          <mxGeometry x="900" y="410" width="70" height="80" as="geometry" />
        </mxCell>
        <mxCell id="NjgUl1H5gCtT-oJemDtV-5" value="" style="edgeStyle=elbowEdgeStyle;elbow=horizontal;endArrow=classic;html=1;strokeWidth=3;entryX=0;entryY=0.5;entryDx=0;entryDy=0;exitX=0.419;exitY=1.014;exitDx=0;exitDy=0;exitPerimeter=0;" edge="1" parent="mtjGMdIXt-amCV8N5kMg-2" target="NjgUl1H5gCtT-oJemDtV-4">
          <mxGeometry width="50" height="50" relative="1" as="geometry">
            <mxPoint x="690" y="410" as="sourcePoint" />
            <mxPoint x="899.02" y="433.1300000000001" as="targetPoint" />
            <Array as="points">
              <mxPoint x="819.02" y="423.1300000000001" />
            </Array>
          </mxGeometry>
        </mxCell>
        <mxCell id="NjgUl1H5gCtT-oJemDtV-6" value="" style="edgeStyle=elbowEdgeStyle;elbow=horizontal;endArrow=classic;html=1;strokeWidth=3;entryX=0;entryY=0.5;entryDx=0;entryDy=0;exitX=0.559;exitY=1.029;exitDx=0;exitDy=0;exitPerimeter=0;" edge="1" parent="mtjGMdIXt-amCV8N5kMg-2" target="NjgUl1H5gCtT-oJemDtV-3">
          <mxGeometry width="50" height="50" relative="1" as="geometry">
            <mxPoint x="689.9999999999998" y="215.00000000000023" as="sourcePoint" />
            <mxPoint x="897.97" y="175.93000000000006" as="targetPoint" />
            <Array as="points">
              <mxPoint x="817.97" y="135.93000000000006" />
            </Array>
          </mxGeometry>
        </mxCell>
        <mxCell id="NjgUl1H5gCtT-oJemDtV-7" value="&lt;font style=&quot;font-size: 14px&quot;&gt;path: /artaBu&lt;/font&gt;" style="text;html=1;strokeColor=none;fillColor=none;align=center;verticalAlign=middle;whiteSpace=wrap;rounded=0;" vertex="1" parent="mtjGMdIXt-amCV8N5kMg-2">
          <mxGeometry x="720" y="420" width="90" height="20" as="geometry" />
        </mxCell>
        <mxCell id="NjgUl1H5gCtT-oJemDtV-8" value="&lt;font style=&quot;font-size: 14px&quot;&gt;path: /app&lt;/font&gt;" style="text;html=1;strokeColor=none;fillColor=none;align=center;verticalAlign=middle;whiteSpace=wrap;rounded=0;" vertex="1" parent="mtjGMdIXt-amCV8N5kMg-2">
          <mxGeometry x="720" y="190" width="70" height="20" as="geometry" />
        </mxCell>
        <mxCell id="cKWAdf0OwSLiy0gp7rAb-0" value="" style="swimlane;startSize=0;" parent="mtjGMdIXt-amCV8N5kMg-2" vertex="1">
          <mxGeometry y="160" width="620" height="297.5" as="geometry" />
        </mxCell>
        <mxCell id="mtjGMdIXt-amCV8N5kMg-16" value="&lt;font style=&quot;font-size: 24px&quot;&gt;&lt;b&gt;I3&lt;/b&gt;&lt;/font&gt;" style="text;html=1;strokeColor=none;fillColor=none;align=center;verticalAlign=middle;whiteSpace=wrap;rounded=0;" parent="cKWAdf0OwSLiy0gp7rAb-0" vertex="1">
          <mxGeometry x="190" y="3.75" width="120" height="70" as="geometry" />
        </mxCell>
        <mxCell id="mtjGMdIXt-amCV8N5kMg-10" value="&lt;font size=&quot;3&quot;&gt;&lt;b&gt;Traefik Controller&lt;/b&gt;&lt;/font&gt;" style="rounded=0;whiteSpace=wrap;html=1;" parent="cKWAdf0OwSLiy0gp7rAb-0" vertex="1">
          <mxGeometry y="68.75" width="90" height="160" as="geometry" />
        </mxCell>
        <mxCell id="mtjGMdIXt-amCV8N5kMg-14" value="" style="endArrow=classic;html=1;exitX=0.5;exitY=1;exitDx=0;exitDy=0;strokeWidth=3;entryX=0;entryY=0.5;entryDx=0;entryDy=0;" parent="cKWAdf0OwSLiy0gp7rAb-0" target="NjgUl1H5gCtT-oJemDtV-9" edge="1">
          <mxGeometry width="50" height="50" relative="1" as="geometry">
            <mxPoint x="170" y="150" as="sourcePoint" />
            <mxPoint x="380" y="115" as="targetPoint" />
          </mxGeometry>
        </mxCell>
        <mxCell id="mtjGMdIXt-amCV8N5kMg-29" value="" style="html=1;dashed=0;whitespace=wrap;fillColor=#2875E2;strokeColor=#ffffff;points=[[0.005,0.63,0],[0.1,0.2,0],[0.9,0.2,0],[0.5,0,0],[0.995,0.63,0],[0.72,0.99,0],[0.5,1,0],[0.28,0.99,0]];shape=mxgraph.kubernetes.icon;prIcon=pod" parent="cKWAdf0OwSLiy0gp7rAb-0" vertex="1">
          <mxGeometry x="10" y="80" width="30" height="30" as="geometry" />
        </mxCell>
        <mxCell id="NjgUl1H5gCtT-oJemDtV-45" value="" style="shape=trapezoid;perimeter=trapezoidPerimeter;whiteSpace=wrap;html=1;fixedSize=1;direction=north;" vertex="1" parent="cKWAdf0OwSLiy0gp7rAb-0">
          <mxGeometry x="90" y="78.75" width="80" height="140" as="geometry" />
        </mxCell>
        <mxCell id="mtjGMdIXt-amCV8N5kMg-12" value="&lt;font style=&quot;font-size: 18px&quot;&gt;&lt;b&gt;Ingress&lt;/b&gt;&lt;/font&gt;" style="text;html=1;strokeColor=none;fillColor=none;align=center;verticalAlign=middle;whiteSpace=wrap;rounded=0;" parent="cKWAdf0OwSLiy0gp7rAb-0" vertex="1">
          <mxGeometry x="100" y="118.75" width="60" height="60" as="geometry" />
        </mxCell>
        <mxCell id="NjgUl1H5gCtT-oJemDtV-9" value="" style="whiteSpace=wrap;html=1;aspect=fixed;fontSize=12;" vertex="1" parent="cKWAdf0OwSLiy0gp7rAb-0">
          <mxGeometry x="330" y="3.75" width="290" height="290" as="geometry" />
        </mxCell>
        <mxCell id="cKWAdf0OwSLiy0gp7rAb-2" value="&lt;font style=&quot;font-size: 20px&quot;&gt;&lt;b&gt;Tex-Caddy&lt;br&gt;Tex-Service&lt;/b&gt;&lt;/font&gt;" style="text;html=1;strokeColor=none;fillColor=none;align=center;verticalAlign=middle;whiteSpace=wrap;rounded=0;" parent="cKWAdf0OwSLiy0gp7rAb-0" vertex="1">
          <mxGeometry x="370" y="78.75" width="200" height="60" as="geometry" />
        </mxCell>
        <mxCell id="mtjGMdIXt-amCV8N5kMg-23" value="" style="html=1;dashed=0;whitespace=wrap;fillColor=#2875E2;strokeColor=#ffffff;points=[[0.005,0.63,0],[0.1,0.2,0],[0.9,0.2,0],[0.5,0,0],[0.995,0.63,0],[0.72,0.99,0],[0.5,1,0],[0.28,0.99,0]];shape=mxgraph.kubernetes.icon;prIcon=pod" parent="cKWAdf0OwSLiy0gp7rAb-0" vertex="1">
          <mxGeometry x="580" y="23.75" width="30" height="30" as="geometry" />
        </mxCell>
        <mxCell id="NjgUl1H5gCtT-oJemDtV-56" value="" style="html=1;dashed=0;whitespace=wrap;fillColor=#2875E2;strokeColor=#ffffff;points=[[0.005,0.63,0],[0.1,0.2,0],[0.9,0.2,0],[0.5,0,0],[0.995,0.63,0],[0.72,0.99,0],[0.5,1,0],[0.28,0.99,0]];shape=mxgraph.kubernetes.icon;prIcon=pod" vertex="1" parent="mtjGMdIXt-amCV8N5kMg-2">
          <mxGeometry x="1020" y="110" width="30" height="20" as="geometry" />
        </mxCell>
        <mxCell id="NjgUl1H5gCtT-oJemDtV-57" value="" style="html=1;dashed=0;whitespace=wrap;fillColor=#2875E2;strokeColor=#ffffff;points=[[0.005,0.63,0],[0.1,0.2,0],[0.9,0.2,0],[0.5,0,0],[0.995,0.63,0],[0.72,0.99,0],[0.5,1,0],[0.28,0.99,0]];shape=mxgraph.kubernetes.icon;prIcon=pod" vertex="1" parent="mtjGMdIXt-amCV8N5kMg-2">
          <mxGeometry x="1020" y="210" width="30" height="20" as="geometry" />
        </mxCell>
        <mxCell id="NjgUl1H5gCtT-oJemDtV-58" value="" style="html=1;dashed=0;whitespace=wrap;fillColor=#2875E2;strokeColor=#ffffff;points=[[0.005,0.63,0],[0.1,0.2,0],[0.9,0.2,0],[0.5,0,0],[0.995,0.63,0],[0.72,0.99,0],[0.5,1,0],[0.28,0.99,0]];shape=mxgraph.kubernetes.icon;prIcon=pod" vertex="1" parent="mtjGMdIXt-amCV8N5kMg-2">
          <mxGeometry x="1020" y="310" width="30" height="20" as="geometry" />
        </mxCell>
        <mxCell id="NjgUl1H5gCtT-oJemDtV-59" value="" style="html=1;dashed=0;whitespace=wrap;fillColor=#2875E2;strokeColor=#ffffff;points=[[0.005,0.63,0],[0.1,0.2,0],[0.9,0.2,0],[0.5,0,0],[0.995,0.63,0],[0.72,0.99,0],[0.5,1,0],[0.28,0.99,0]];shape=mxgraph.kubernetes.icon;prIcon=pod" vertex="1" parent="mtjGMdIXt-amCV8N5kMg-2">
          <mxGeometry x="1020" y="410" width="30" height="20" as="geometry" />
        </mxCell>
        <mxCell id="mtjGMdIXt-amCV8N5kMg-25" value="" style="outlineConnect=0;fontColor=#232F3E;gradientColor=none;fillColor=#A166FF;strokeColor=none;dashed=0;verticalLabelPosition=bottom;verticalAlign=top;align=center;html=1;fontSize=12;fontStyle=0;aspect=fixed;pointerEvents=1;shape=mxgraph.aws4.cluster;direction=east;" parent="mtjGMdIXt-amCV8N5kMg-0" vertex="1">
          <mxGeometry x="40" y="10" width="40" height="40" as="geometry" />
        </mxCell>
        <mxCell id="mtjGMdIXt-amCV8N5kMg-30" value="" style="endArrow=classic;html=1;strokeWidth=3;exitX=1;exitY=0.5;exitDx=0;exitDy=0;exitPerimeter=0;entryX=0;entryY=0.5;entryDx=0;entryDy=0;" parent="KOQOTGZPTuCLEAgM73mw-1" target="mtjGMdIXt-amCV8N5kMg-10" edge="1">
          <mxGeometry width="50" height="50" relative="1" as="geometry">
            <mxPoint x="260" y="1178.75" as="sourcePoint" />
            <mxPoint x="1020" y="1070" as="targetPoint" />
          </mxGeometry>
        </mxCell>
        <mxCell id="mtjGMdIXt-amCV8N5kMg-31" value="&lt;font style=&quot;font-size: 14px&quot;&gt;&lt;b&gt;https://repa-dev.dhc.corpintra.net&lt;/b&gt;&lt;/font&gt;" style="text;html=1;strokeColor=none;fillColor=none;align=center;verticalAlign=middle;whiteSpace=wrap;rounded=0;" parent="KOQOTGZPTuCLEAgM73mw-1" vertex="1">
          <mxGeometry x="290" y="1150" width="240" height="20" as="geometry" />
        </mxCell>
        <mxCell id="NjgUl1H5gCtT-oJemDtV-65" value="" style="dashed=0;outlineConnect=0;html=1;align=center;labelPosition=center;verticalLabelPosition=bottom;verticalAlign=top;shape=mxgraph.weblogos.chrome;fontSize=20;" vertex="1" parent="KOQOTGZPTuCLEAgM73mw-1">
          <mxGeometry x="190.00000000000006" y="1140" width="74.8" height="75.4" as="geometry" />
        </mxCell>
      </root>
    </mxGraphModel>
  </diagram>
  <diagram id="1jyIMcwEd9O6wa1LE35C" name="Page-2">
    <mxGraphModel dx="1422" dy="794" grid="1" gridSize="10" guides="1" tooltips="1" connect="1" arrows="1" fold="1" page="1" pageScale="1" pageWidth="1100" pageHeight="1700" math="0" shadow="0">
      <root>
        <mxCell id="kn5HvT4rMzMJ4DFRqKDS-0" />
        <mxCell id="kn5HvT4rMzMJ4DFRqKDS-1" parent="kn5HvT4rMzMJ4DFRqKDS-0" />
      </root>
    </mxGraphModel>
  </diagram>
</mxfile>
